<svg width="1200" height="1200" viewBox="0 0 1200 1200" fill="none" xmlns="http://www.w3.org/2000/svg">
<rect width="1200" height="1200" fill="white"/>
<rect width="1200" height="1200" fill="black"/>
<path d="M466.365 206.759C473.234 186.362 495.338 175.395 515.735 182.264C525.117 185.424 530.162 195.591 527.002 204.974L302.506 871.598C298.869 882.397 287.167 888.203 276.367 884.566C257.387 878.174 247.182 857.606 253.574 838.625L466.365 206.759Z" fill="white"/>
<path d="M345.88 980.743C339.062 1001.16 316.986 1012.18 296.572 1005.36C287.181 1002.22 282.111 992.07 285.247 982.679L508.073 315.496C511.683 304.687 523.371 298.852 534.18 302.462C553.176 308.806 563.433 329.349 557.088 348.345L345.88 980.743Z" fill="white"/>
<path d="M947.024 972.759C953.002 990.469 943.491 1009.67 925.78 1015.65C876.489 1032.29 823.044 1005.82 806.406 956.527L578.921 282.581C562.771 234.736 588.465 182.857 636.311 166.708C655.467 160.242 676.237 170.529 682.703 189.685L947.024 972.759Z" fill="white"/>
</svg>
